{
  "accessors": [
    {
      "bufferView": 2,
      "componentType": 5126,
      "count": 415,
      "max": [
        1.2839009761810303,
        1.7478749752044678,
        1.0225566625595093
      ],
      "min": [
        -1.4692695140838623,
        -1.112144947052002,
        -1.0380933284759521
      ],
      "type": "VEC3"
    },
    {
      "bufferView": 2,
      "byteOffset": 4980,
      "componentType": 5126,
      "count": 415,
      "max": [
        0.9981199502944946,
        0.994646430015564,
        0.9998531341552734
      ],
      "min": [
        -0.99676913022995,
        -0.9910141229629517,
        -0.9893156886100769
      ],
      "type": "VEC3"
    },
    {
      "bufferView": 1,
      "componentType": 5126,
      "count": 415,
      "max": [
        0.9984595775604248,
        0.9796529412269592
      ],
      "min": [
        0.0015406283782795072,
        0.0015685288235545158
      ],
      "type": "VEC2"
    },
    {
      "bufferView": 2,
      "byteOffset": 9960,
      "componentType": 5126,
      "count": 415,
      "max": [
        0.1957327127456665,
        1.9073486328125e-06,
        0.11992651224136353
      ],
      "min": [
        -0.06722468137741089,
        -0.18559956550598145,
        -0.10440599918365479
      ],
      "type": "VEC3"
    },
    {
      "bufferView": 2,
      "byteOffset": 14940,
      "componentType": 5126,
      "count": 415,
      "max": [
        0.4518510699272156,
        0.15108352899551392,
        0.2671734094619751
      ],
      "min": [
        -0.2396707534790039,
        -0.6105347275733948,
        -0.3810791075229645
      ],
      "type": "VEC3"
    },
    {
      "bufferView": 2,
      "byteOffset": 19920,
      "componentType": 5126,
      "count": 415,
      "max": [
        0.086212158203125,
        0.1824430227279663,
        0.29182469844818115
      ],
      "min": [
        -0.2585794925689697,
        -0.2515472173690796,
        -0.5285455584526062
      ],
      "type": "VEC3"
    },
    {
      "bufferView": 2,
      "byteOffset": 24900,
      "componentType": 5126,
      "count": 415,
      "max": [
        0.3457987904548645,
        0.4087943434715271,
        0.2375512570142746
      ],
      "min": [
        -0.43879127502441406,
        -0.36690422892570496,
        -0.3910320997238159
      ],
      "type": "VEC3"
    },
    {
      "bufferView": 0,
      "componentType": 5125,
      "count": 1578,
      "type": "SCALAR"
    },
    {
      "bufferView": 3,
      "componentType": 5126,
      "count": 37,
      "max": [
        2.0833332538604736
      ],
      "min": [
        0.0416666679084301
      ],
      "type": "SCALAR"
    },
    {
      "bufferView": 3,
      "byteOffset": 148,
      "componentType": 5126,
      "count": 74,
      "max": [
        1.0
      ],
      "min": [
        0.0
      ],
      "type": "SCALAR"
    }
  ],
  "animations": [
    {
      "channels": [
        {
          "sampler": 0,
          "target": {
            "node": 4,
            "path": "weights"
          }
        }
      ],
      "name": "MorphBake",
      "samplers": [
        {
          "input": 8,
          "interpolation": "LINEAR",
          "output": 9
        }
      ]
    }
  ],
  "asset": {
    "extras": {
      "author": "rukitu (https://sketchfab.com/rukitu)",
      "license": "CC-BY-4.0 (http://creativecommons.org/licenses/by/4.0/)",
      "source": "https://sketchfab.com/3d-models/doggy-meme-dog-ps1-8f9361ab396e4c21a53bc50a57a740cd",
      "title": "Doggy Meme Dog PS1"
    },
    "generator": "Sketchfab-13.28.0",
    "version": "2.0"
  },
  "bufferViews": [
    {
      "buffer": 0,
      "byteLength": 6312,
      "name": "floatBufferViews",
      "target": 34963
    },
    {
      "buffer": 0,
      "byteLength": 3320,
      "byteOffset": 6312,
      "byteStride": 8,
      "name": "floatBufferViews",
      "target": 34962
    },
    {
      "buffer": 0,
      "byteLength": 29880,
      "byteOffset": 9632,
      "byteStride": 12,
      "name": "floatBufferViews",
      "target": 34962
    },
    {
      "buffer": 0,
      "byteLength": 444,
      "byteOffset": 39512,
      "name": "floatBufferViews"
    }
  ],
  "buffers": [
    {
      "byteLength": 39956,
      "uri": "scene.bin"
    }
  ],
  "extensionsUsed": [
    "KHR_materials_unlit"
  ],
  "images": [
    {
      "uri": "textures/Material.001_baseColor.png"
    }
  ],
  "materials": [
    {
      "doubleSided": true,
      "extensions": {
        "KHR_materials_unlit": {}
      },
      "name": "Material.001",
      "pbrMetallicRoughness": {
        "baseColorTexture": {
          "index": 0
        },
        "metallicFactor": 0.0
      }
    }
  ],
  "meshes": [
    {
      "name": "mesh_0",
      "primitives": [
        {
          "attributes": {
            "NORMAL": 1,
            "POSITION": 0,
            "TEXCOORD_0": 2
          },
          "indices": 7,
          "material": 0,
          "mode": 4,
          "targets": [
            {
              "NORMAL": 4,
              "POSITION": 3
            },
            {
              "NORMAL": 6,
              "POSITION": 5
            }
          ]
        }
      ],
      "weights": [
        0.0,
        0.0
      ]
    }
  ],
  "nodes": [
    {
      "children": [
        1
      ],
      "matrix": [
        1.0,
        0.0,
        0.0,
        0.0,
        0.0,
        2.220446049250313e-16,
        -1.0,
        0.0,
        0.0,
        1.0,
        2.220446049250313e-16,
        0.0,
        0.0,
        0.0,
        0.0,
        1.0
      ],
      "name": "Sketchfab_model"
    },
    {
      "children": [
        2
      ],
      "name": "root"
    },
    {
      "children": [
        3
      ],
      "matrix": [
        1.0,
        0.0,
        0.0,
        0.0,
        0.0,
        2.220446049250313e-16,
        1.0,
        0.0,
        0.0,
        -1.0,
        2.220446049250313e-16,
        0.0,
        0.0,
        0.0,
        0.0,
        1.0
      ],
      "name": "GLTF_SceneRootNode"
    },
    {
      "children": [
        4
      ],
      "name": "Doggy_0",
      "rotation": [
        0.0566522441804409,
        0.004674630239605904,
        0.021973900496959686,
        -0.9981411695480347
      ],
      "scale": [
        0.7787581086158752,
        0.7787580490112305,
        0.7787579894065857
      ]
    },
    {
      "mesh": 0,
      "name": "mesh_0"
    }
  ],
  "samplers": [
    {
      "magFilter": 9729,
      "minFilter": 9987,
      "wrapS": 10497,
      "wrapT": 10497
    }
  ],
  "scene": 0,
  "scenes": [
    {
      "name": "Sketchfab_Scene",
      "nodes": [
        0
      ]
    }
  ],
  "textures": [
    {
      "sampler": 0,
      "source": 0
    }
  ]
}
